# xmcd
# 
# Track frame offsets:
#     187
#     17365
#     39687
#     60337
#     79007
#     104202
#     121140
#     141060
#     161637
# 
# Disc length: 2494
# 
# Revision: 1
# Processed by: cddbd v1.5.2PL0 Copyright (c) Steve Scherf et al.
# Submitted via: fre:ac v1.0.17
# 
DISCID=6d09bc09
DTITLE=高橋真梨子 - PRETEND
DYEAR=1992
DGENRE=JPop
TTITLE0=チャイナドレスでシルクロード
TTITLE1=十六夜
TTITLE2=永遠の魚
TTITLE3=戦士の休息
TTITLE4=Liberty〜渚にて〜
TTITLE5=Police Story
TTITLE6=都会の空
TTITLE7=心揺れて
TTITLE8=TRUE
EXTD=YEAR: 1992
EXTT0=
EXTT1=
EXTT2=
EXTT3=
EXTT4=
EXTT5=
EXTT6=
EXTT7=
EXTT8=
PLAYORDER=
